<svg version="1.1" xmlns="http://www.w3.org/2000/svg" xmlns:xlink="http://www.w3.org/1999/xlink" x="0px" y="0px"
	 width="256px" height="256.003px" viewBox="20.298 20.4 256 256.003" enable-background="new 20.298 20.4 256 256.003"
	 xml:space="preserve">
<path fill="#CCCCCC" d="M255.001,150.316l21.297-6.389c-0.424-9.37-1.705-18.315-3.834-26.833l-22.147-0.427
	c-0.853-2.559-1.701-4.688-2.559-7.243l17.04-14.055c-3.834-8.095-8.516-16.187-13.629-23.429l-20.874,8.095
	c-1.704-2.132-3.408-3.835-5.111-5.54l10.227-19.593c-6.818-5.964-14.061-11.5-21.729-16.186l-15.759,15.333
	c-2.129-1.277-4.685-2.129-6.815-3.407l2.132-22.152c-8.521-2.98-17.04-5.536-26.407-6.814l-8.948,20.447
	c-2.556-0.427-5.11-0.427-7.667-0.427L143.824,20.4c-9.369,0.426-18.313,1.706-26.832,3.833l-0.427,22.151
	c-2.557,0.853-4.686,1.705-7.241,2.555L95.266,31.9c-8.09,3.836-16.185,8.52-23.426,13.632l8.093,20.873
	c-2.13,1.704-3.832,3.407-5.538,5.112L54.802,61.292c-5.965,6.816-11.5,14.058-16.187,21.725l15.334,15.759
	c-1.278,2.129-2.129,4.687-3.407,6.815l-22.152-2.129c-2.98,8.519-5.536,17.038-6.814,26.413l20.447,8.941
	c-0.427,2.559-0.427,5.111-0.427,7.667l-21.298,6.392c0.426,9.371,1.706,18.312,3.833,26.834l22.152,0.43
	c0.852,2.553,1.704,4.682,2.554,7.236l-17.036,14.059c3.833,8.092,8.516,16.188,13.628,23.426l20.872-8.092
	c1.705,2.129,3.407,3.833,5.112,5.538l-10.225,19.592c6.817,5.966,14.058,11.5,21.726,16.19l15.761-15.334
	c2.13,1.275,4.685,2.129,6.816,3.404l-2.132,22.149c8.52,2.983,17.039,5.536,26.411,6.817l8.942-20.447
	c2.558,0.425,5.11,0.425,7.67,0.425l6.388,21.301c9.369-0.43,18.317-1.706,26.832-3.834l0.43-22.147
	c2.557-0.858,4.686-1.705,7.242-2.56l14.06,17.038c8.089-3.831,16.181-8.52,23.423-13.633l-8.091-21.297
	c2.129-1.703,3.835-3.408,5.539-5.112l19.59,10.229c5.963-6.819,11.503-14.062,16.188-21.729L242.648,197.6
	c1.276-2.129,2.129-4.688,3.406-6.815l22.15,2.129c2.982-8.521,5.539-17.037,6.814-26.41l-20.443-8.943
	C254.577,155.43,255.001,152.875,255.001,150.316z M148.512,212.08c-35.354,0-63.894-28.537-63.894-63.893
	c0-35.354,28.539-63.892,63.894-63.892c35.355,0,63.895,28.538,63.895,63.892C212.404,183.542,183.867,212.08,148.512,212.08z">
</path>
</svg>
