<svg version="1.1" xmlns="http://www.w3.org/2000/svg" xmlns:xlink="http://www.w3.org/1999/xlink" x="0px" y="0px"
	 width="256px" height="204.628px" viewBox="-0.023 0.016 256 204.628" enable-background="new -0.023 0.016 256 204.628"
	 xml:space="preserve">
<g>
	<path fill="#FDBD39" d="M39.436,141.104l-13.392,4.893l-0.721,39.842l46.361-16.934C55.783,163.562,44.171,154.162,39.436,141.104"
		/>
	<path fill="#F69833" d="M46.443,98.967l-46.466,16.975l26.066,30.055l13.392-4.893C34.713,128.083,37.625,113.361,46.443,98.967"/>
	<path fill="#FECF33" d="M124.64,41.477c-59.171,21.617-97.319,66.218-85.204,99.626l214.276-78.275
		C241.6,29.419,183.809,19.862,124.64,41.477"/>
	<path fill="#EE6723" d="M168.508,162.454c59.172-21.617,97.393-66.023,85.204-99.627L39.436,141.104
		C51.621,174.708,109.337,184.07,168.508,162.454"/>
	<path fill="#F69833" d="M253.712,62.827L39.436,141.104c4.195,11.571,20.195,17.271,42.646,17.271
		c21.888,0,49.906-5.413,79.113-16.084C220.366,120.675,262,85.677,253.712,62.827"/>
	<path fill="#FDBD39" d="M211.066,45.554c-21.893,0-49.908,5.415-79.116,16.086c-59.171,21.616-100.803,56.614-92.515,79.463
		l214.276-78.275C249.518,51.256,233.518,45.554,211.066,45.554"/>
	<path fill="#EE6723" d="M199.232,187.945h-0.004c-6.305,0-15.604-5.691-27.646-16.926c-14.241-13.283-30.559-32.75-45.939-54.8
		C110.26,94.173,97.621,72.129,90.052,54.149c-8.248-19.591-9.423-31.637-3.496-35.804c1.301-0.913,2.867-1.375,4.656-1.375
		c4.823,0,14.217,3.59,31.59,20.691l0.381,0.375l-0.052,0.531c-0.118,1.228-0.229,2.467-0.325,3.684l-0.193,2.417l-1.704-1.717
		C102.19,24.093,93.948,22.057,91.275,22.057c-0.762,0-1.37,0.154-1.806,0.46c-2.571,1.806-2.735,10.656,5.258,29.647
		c7.436,17.659,19.892,39.369,35.075,61.134c15.187,21.767,31.248,40.938,45.239,53.987c15.084,14.074,21.884,15.592,24.104,15.592
		c0.768,0,1.393-0.163,1.854-0.492c2.712-1.902,2.716-11.383-6.2-31.824l-0.408-0.938l0.893-0.492
		c0.898-0.486,1.767-0.971,2.574-1.438l1.074-0.608l0.496,1.134c6.321,14.483,12.229,32.896,4.483,38.342
		C202.607,187.482,201.033,187.945,199.232,187.945z M199.229,185.712h0.006v1.117L199.229,185.712z"/>
	<path fill="#EE6723" d="M169.945,161.842l-0.092,1.112c-1.496,18.512-5.434,40.767-15.705,41.666
		c-0.207,0.017-0.42,0.024-0.633,0.024c-6.979,0-13.578-9.992-19.617-29.707c-5.718-18.65-10.15-43.692-12.488-70.514
		c-2.34-26.814-2.304-52.25,0.098-71.619c2.617-21.106,7.602-32.126,14.809-32.76c0.218-0.021,0.435-0.029,0.654-0.029
		c5.062,0,12.688,5.729,20.496,32.423l-5.101,0.983c-2.604-8.919-5.445-16.175-8.267-21.161c-2.608-4.61-5.146-7.15-7.143-7.15
		c-0.066,0-0.134,0.004-0.2,0.008c-3.125,0.275-7.675,7.854-10.212,28.315c-2.358,19.022-2.388,44.074-0.079,70.546
		c2.308,26.473,6.671,51.139,12.283,69.455c2.513,8.209,5.271,14.967,7.976,19.555c2.491,4.229,4.899,6.562,6.791,6.562
		c0.062,0,0.125-0.004,0.191-0.009c2.991-0.262,8.625-8.148,10.996-35.902L169.945,161.842"/>
</g>
</svg>
